erDiagram
	direction TB
	CUSTOMERS_TABLE {
		string customer_id  ""  
		string customer_unique_id  ""  
		string customer_zip_code_prefix  ""  
		string customer_city  ""  
		string customer_state  ""  
	}

	ORDERS_TABLE {
		string order_id  ""  
		string customer_id  ""  
		string order_status  ""  
		date order_purchase_timestamp  ""  
		date order_approved_at  ""  
		date order_delivered_carrier_date  ""  
		date order_delivered_customer_date  ""  
		date order_estimated_delivery_date  ""  
	}

	ORDER_ITEMS_TABLE {
		string order_id  ""  
		int order_item_id  ""  
		string product_id  ""  
		string seller_id  ""  
		date shipping_limit_date  ""  
		float price  ""  
		float freight_value  ""  
	}

	PRODUCTS_TABLE {
		string product_id  ""  
		string product_category_name  ""  
		float product_weight_g  ""  
		float product_length_cm  ""  
		float product_height_cm  ""  
		float product_width_cm  ""  
	}

	PRODUCT_CATEGORY_NAME_TRANSLATION_TABLE {
		string product_category_name  ""  
		string product_category_name_english  ""  
	}

	SELLERS_TABLE {
		string seller_id  ""  
		string seller_zip_code_prefix  ""  
		string seller_city  ""  
		string seller_state  ""  
	}

	ORDER_PAYMENTS_TABLE {
		string order_id  ""  
		int payment_sequential  ""  
		string payment_type  ""  
		int payment_installments  ""  
		float payment_value  ""  
	}

	ORDER_REVIEWS_TABLE {
		string review_id  ""  
		string order_id  ""  
		int review_score  ""  
		string review_comment_title  ""  
		string review_comment_message  ""  
		date review_creation_date  ""  
		date review_answer_timestamp  ""  
	}

	GEOLOCATION_TABLE {
		string geolocation_zip_code_prefix  ""  
		float geolocation_lat  ""  
		float geolocation_lng  ""  
		string geolocation_city  ""  
		string geolocation_state  ""  
	}

	CUSTOMERS_TABLE||--o{ORDERS_TABLE:"places"
	ORDERS_TABLE||--|{ORDER_ITEMS_TABLE:"contains"
	PRODUCTS_TABLE||--o{ORDER_ITEMS_TABLE:"includes"
	PRODUCTS_TABLE||--||PRODUCT_CATEGORY_NAME_TRANSLATION_TABLE:"translated_to"
	SELLERS_TABLE||--o{ORDER_ITEMS_TABLE:"provides"
	ORDERS_TABLE||--|{ORDER_PAYMENTS_TABLE:"has"
	ORDERS_TABLE||--o{ORDER_REVIEWS_TABLE:"receives"
	CUSTOMERS_TABLE||--||GEOLOCATION_TABLE:"located_in"
	SELLERS_TABLE||--||GEOLOCATION_TABLE:"located_in"

